<svg width="41" height="40" viewBox="0 0 41 40" fill="none" xmlns="http://www.w3.org/2000/svg">
<path d="M22.4064 13.25H22.4002C22.2137 11.9455 21.6121 10.7357 20.6845 9.79965C19.757 8.86359 18.5527 8.25099 17.25 8.0525L16.55 8C16.2715 8 16.0045 8.11062 15.8075 8.30754C15.6106 8.50445 15.5 8.77152 15.5 9.05V13.95C15.5 14.2285 15.6106 14.4955 15.8075 14.6925C16.0045 14.8894 16.2715 15 16.55 15H21.45C21.7285 15 21.9955 14.8894 22.1925 14.6925C22.3894 14.4955 22.5 14.2285 22.5 13.95L22.4064 13.25Z" fill="white"/>
<path d="M12.3599 8.72719C12.76 8.48605 13.0774 8.2947 13.5 8.50003C14.0139 8.74975 14.0049 9.54835 14.0006 9.91919C14.0003 9.94909 14 9.97621 14 10V13.95C14 14.6263 14.2686 15.2749 14.7469 15.7532C15.2251 16.2314 15.8737 16.5 16.55 16.5H20.5C20.8193 16.5 21.2323 16.6551 21.5 17C21.8443 17.4436 21.9654 17.7884 21.6011 18.4343C20.4004 20.5628 18.1181 22.0001 15.5 22.0001C11.634 22.0001 8.5 18.8661 8.5 15.0001C8.5 12.3694 9.95112 10.0777 12.0966 8.88168C12.1891 8.83012 12.2763 8.77757 12.3599 8.72719Z" fill="white"/>
<path d="M29.5 22C28.9477 22 28.5 22.4477 28.5 23V31C28.5 31.5523 28.9477 32 29.5 32H31.5C32.0523 32 32.5 31.5523 32.5 31V23C32.5 22.4477 32.0523 22 31.5 22H29.5Z" fill="white" fill-opacity="0.65"/>
<path d="M8.5 24C8.5 23.4477 8.94772 23 9.5 23H11.5C12.0523 23 12.5 23.4477 12.5 24V31C12.5 31.5523 12.0523 32 11.5 32H9.5C8.94772 32 8.5 31.5523 8.5 31V24Z" fill="white" fill-opacity="0.65"/>
<path d="M13.5 26C13.5 25.4477 13.9477 25 14.5 25H16.5C17.0523 25 17.5 25.4477 17.5 26V31C17.5 31.5523 17.0523 32 16.5 32H14.5C13.9477 32 13.5 31.5523 13.5 31V26Z" fill="white" fill-opacity="0.65"/>
<path d="M19.5 23C18.9477 23 18.5 23.4477 18.5 24V31C18.5 31.5523 18.9477 32 19.5 32H21.5C22.0523 32 22.5 31.5523 22.5 31V24C22.5 23.4477 22.0523 23 21.5 23H19.5Z" fill="white" fill-opacity="0.65"/>
<path d="M23.5 26C23.5 25.4477 23.9477 25 24.5 25H26.5C27.0523 25 27.5 25.4477 27.5 26V31C27.5 31.5523 27.0523 32 26.5 32H24.5C23.9477 32 23.5 31.5523 23.5 31V26Z" fill="white" fill-opacity="0.65"/>
<path d="M25.5 10C24.9477 10 24.5 10.4477 24.5 11C24.5 11.5523 24.9477 12 25.5 12H31.5C32.0523 12 32.5 11.5523 32.5 11C32.5 10.4477 32.0523 10 31.5 10H25.5Z" fill="white" fill-opacity="0.4"/>
<path d="M24.5 15C24.5 14.4477 24.9477 14 25.5 14H31.5C32.0523 14 32.5 14.4477 32.5 15C32.5 15.5523 32.0523 16 31.5 16H25.5C24.9477 16 24.5 15.5523 24.5 15Z" fill="white" fill-opacity="0.4"/>
<path d="M24.5 19C24.5 18.4477 24.9477 18 25.5 18H31.5C32.0523 18 32.5 18.4477 32.5 19C32.5 19.5523 32.0523 20 31.5 20H25.5C24.9477 20 24.5 19.5523 24.5 19Z" fill="white" fill-opacity="0.4"/>
</svg>
