<svg width="41" height="40" viewBox="0 0 41 40" fill="none" xmlns="http://www.w3.org/2000/svg">
<path d="M16.5 19C19.2614 19 21.5 16.7614 21.5 14C21.5 11.2386 19.2614 9 16.5 9C13.7386 9 11.5 11.2386 11.5 14C11.5 16.7614 13.7386 19 16.5 19Z" fill="white"/>
<path d="M7.5 25C7.5 22.0419 9.64069 19.5838 12.4574 19.0903C13.5671 19.9727 14.972 20.5 16.5 20.5C18.028 20.5 19.4329 19.9727 20.5426 19.0903C23.3593 19.5838 25.5 22.0419 25.5 25V28C25.5 29.1046 24.6046 30 23.5 30H9.5C8.39542 30 7.5 29.1046 7.5 28V25Z" fill="white"/>
<path d="M24.6488 19.5468C24.3017 19.2191 23.9233 18.924 23.5186 18.6667C22.9781 18.063 22.6184 17.294 22.5244 16.445C22.8236 15.7084 22.9917 14.9046 22.9996 14.0625C23.6819 12.8325 24.9937 12 26.4999 12C28.7091 12 30.4999 13.7909 30.4999 16C30.4999 18.2091 28.7091 20 26.4999 20C25.832 20 25.2023 19.8363 24.6488 19.5468Z" fill="white" fill-opacity="0.65"/>
<path d="M26.9999 28L31.4999 28C32.6045 28 33.4999 27.1046 33.4999 26C33.4999 23.4825 31.9494 21.327 29.7512 20.4366C28.8404 21.1052 27.7163 21.5 26.4999 21.5C26.3751 21.5 26.2513 21.4958 26.1285 21.4877C26.6848 22.5353 26.9999 23.7307 26.9999 25V28Z" fill="white" fill-opacity="0.65"/>
</svg>
