<svg width="41" height="40" viewBox="0 0 41 40" fill="none" xmlns="http://www.w3.org/2000/svg">
<path fill-rule="evenodd" clip-rule="evenodd" d="M28.4484 24.3206C28.3842 23.9668 28.4275 23.6018 28.5727 23.2727C28.711 22.9501 28.9406 22.6749 29.2333 22.4811C29.526 22.2872 29.869 22.1832 30.22 22.1818H30.3182C30.8968 22.1818 31.4518 21.9519 31.861 21.5428C32.2701 21.1336 32.5 20.5787 32.5 20C32.5 19.4213 32.2701 18.8664 31.861 18.4572C31.4518 18.0481 30.8968 17.8182 30.3182 17.8182H30.1327C29.7817 17.8168 29.4387 17.7128 29.146 17.5189C28.8653 17.333 28.6426 17.0723 28.5029 16.7666C28.4911 16.7408 28.4855 16.7126 28.4855 16.6842C28.4855 16.6551 28.4792 16.6263 28.4681 16.5993C28.3369 16.281 28.2996 15.9315 28.3611 15.5921C28.4253 15.2382 28.594 14.9117 28.8455 14.6545L28.9109 14.5891C29.1138 14.3865 29.2747 14.1458 29.3845 13.881C29.4943 13.6161 29.5508 13.3322 29.5508 13.0455C29.5508 12.7587 29.4943 12.4748 29.3845 12.2099C29.2747 11.9451 29.1138 11.7045 28.9109 11.5018C28.7083 11.299 28.4676 11.138 28.2028 11.0282C27.9379 10.9184 27.654 10.8619 27.3673 10.8619C27.0805 10.8619 26.7966 10.9184 26.5318 11.0282C26.2669 11.138 26.0263 11.299 25.8236 11.5018L25.7582 11.5673C25.5011 11.8188 25.1745 11.9875 24.8206 12.0516C24.4668 12.1158 24.1018 12.0725 23.7727 11.9273C23.4501 11.789 23.1749 11.5594 22.9811 11.2667C22.7872 10.974 22.6832 10.631 22.6818 10.28V10.1818C22.6818 9.60316 22.4519 9.04821 22.0428 8.63904C21.6336 8.22987 21.0787 8 20.5 8C19.9213 8 19.3664 8.22987 18.9572 8.63904C18.5481 9.04821 18.3182 9.60316 18.3182 10.1818V10.3673C18.3168 10.7183 18.2128 11.0613 18.0189 11.354C17.833 11.6347 17.5723 11.8574 17.2666 11.9971C17.2408 12.0089 17.2126 12.0145 17.1842 12.0145C17.1551 12.0145 17.1263 12.0208 17.0993 12.0319C16.781 12.1631 16.4315 12.2004 16.0921 12.1389C15.7382 12.0747 15.4117 11.906 15.1545 11.6545L15.0891 11.5891C14.8865 11.3862 14.6458 11.2253 14.381 11.1155C14.1161 11.0057 13.8322 10.9492 13.5455 10.9492C13.2587 10.9492 12.9748 11.0057 12.7099 11.1155C12.4451 11.2253 12.2045 11.3862 12.0018 11.5891C11.799 11.7917 11.638 12.0324 11.5282 12.2972C11.4184 12.5621 11.3619 12.846 11.3619 13.1327C11.3619 13.4195 11.4184 13.7034 11.5282 13.9682C11.638 14.2331 11.799 14.4737 12.0018 14.6764L12.0673 14.7418C12.3188 14.9989 12.4875 15.3255 12.5516 15.6794C12.6158 16.0332 12.5725 16.3982 12.4273 16.7273C12.3026 17.0663 12.0788 17.3599 11.7851 17.57C11.4913 17.7801 11.1411 17.897 10.78 17.9055H10.6818C10.1032 17.9055 9.54821 18.1353 9.13904 18.5445C8.72987 18.9537 8.5 19.5086 8.5 20.0873C8.5 20.6659 8.72987 21.2209 9.13904 21.6301C9.54821 22.0392 10.1032 22.2691 10.6818 22.2691H10.8673C11.2183 22.2705 11.5613 22.3745 11.854 22.5683C12.1466 22.7622 12.3763 23.0373 12.5145 23.36C12.6598 23.689 12.7031 24.054 12.6389 24.4079C12.5747 24.7618 12.406 25.0884 12.1545 25.3455L12.0891 25.4109C11.8862 25.6135 11.7253 25.8542 11.6155 26.119C11.5057 26.3839 11.4492 26.6678 11.4492 26.9545C11.4492 27.2413 11.5057 27.5252 11.6155 27.7901C11.7253 28.0549 11.8862 28.2956 12.0891 28.4982C12.2917 28.701 12.5324 28.862 12.7972 28.9718C13.0621 29.0816 13.346 29.1381 13.6327 29.1381C13.9195 29.1381 14.2034 29.0816 14.4682 28.9718C14.7331 28.862 14.9737 28.701 15.1764 28.4982L15.2418 28.4327C15.4989 28.1812 15.8255 28.0125 16.1794 27.9484C16.5332 27.8842 16.8982 27.9275 17.2273 28.0727C17.5663 28.1974 17.8599 28.4212 18.07 28.7149C18.2801 29.0087 18.397 29.3589 18.4055 29.72V29.8182C18.4055 30.3968 18.6353 30.9518 19.0445 31.361C19.4537 31.7701 20.0086 32 20.5873 32C21.1659 32 21.7209 31.7701 22.1301 31.361C22.5392 30.9518 22.7691 30.3968 22.7691 29.8182V29.6327C22.7705 29.2817 22.8745 28.9387 23.0683 28.646C23.2622 28.3534 23.5373 28.1237 23.86 27.9855C24.189 27.8402 24.554 27.7969 24.9079 27.8611C25.2618 27.9253 25.5884 28.094 25.8455 28.3455L25.9109 28.4109C26.1135 28.6138 26.3542 28.7747 26.619 28.8845C26.8839 28.9943 27.1678 29.0508 27.4545 29.0508C27.7413 29.0508 28.0252 28.9943 28.2901 28.8845C28.5549 28.7747 28.7956 28.6138 28.9982 28.4109C29.201 28.2083 29.362 27.9676 29.4718 27.7028C29.5816 27.4379 29.6381 27.154 29.6381 26.8673C29.6381 26.5805 29.5816 26.2966 29.4718 26.0318C29.362 25.7669 29.201 25.5263 28.9982 25.3236L28.9327 25.2582C28.6812 25.0011 28.5125 24.6745 28.4484 24.3206ZM24.5 20C24.5 22.2091 22.7091 24 20.5 24C18.2909 24 16.5 22.2091 16.5 20C16.5 17.7909 18.2909 16 20.5 16C22.7091 16 24.5 17.7909 24.5 20Z" fill="white"/>
</svg>
