<svg width="41" height="40" viewBox="0 0 41 40" fill="none" xmlns="http://www.w3.org/2000/svg">
<path fill-rule="evenodd" clip-rule="evenodd" d="M20.5 31C26.5751 31 31.5 26.0751 31.5 20C31.5 13.9249 26.5751 9 20.5 9C14.4249 9 9.5 13.9249 9.5 20C9.5 26.0751 14.4249 31 20.5 31ZM19 15.5C19 14.6716 19.6716 14 20.5 14C21.3284 14 22 14.6716 22 15.5C22 16.3284 21.3284 17 20.5 17C19.6716 17 19 16.3284 19 15.5ZM19 20C19 19.1716 19.6716 18.5 20.5 18.5C21.3284 18.5 22 19.1716 22 20V24.5C22 25.3284 21.3284 26 20.5 26C19.6716 26 19 25.3284 19 24.5V20Z" fill="white"/>
</svg>
