<svg width="41" height="40" viewBox="0 0 41 40" fill="none" xmlns="http://www.w3.org/2000/svg">
<path fill-rule="evenodd" clip-rule="evenodd" d="M31.5 20C31.5 26.0751 26.5751 31 20.5 31C18.7404 31 17.0772 30.5868 15.6023 29.8522C15.2103 29.657 14.7623 29.592 14.3393 29.7052L11.8907 30.3603C10.8277 30.6447 9.85525 29.6723 10.1397 28.6093L10.7948 26.1607C10.908 25.7377 10.843 25.2897 10.6478 24.8977C9.91318 23.4228 9.5 21.7596 9.5 20C9.5 13.9249 14.4249 9 20.5 9C26.5751 9 31.5 13.9249 31.5 20ZM14.5 20C14.5 20.8284 15.1716 21.5 16 21.5C16.8284 21.5 17.5 20.8284 17.5 20C17.5 19.1716 16.8284 18.5 16 18.5C15.1716 18.5 14.5 19.1716 14.5 20ZM19 20C19 20.8284 19.6716 21.5 20.5 21.5C21.3284 21.5 22 20.8284 22 20C22 19.1716 21.3284 18.5 20.5 18.5C19.6716 18.5 19 19.1716 19 20ZM23.5 20C23.5 20.8284 24.1716 21.5 25 21.5C25.8284 21.5 26.5 20.8284 26.5 20C26.5 19.1716 25.8284 18.5 25 18.5C24.1716 18.5 23.5 19.1716 23.5 20Z" fill="white"/>
</svg>
