<svg width="41" height="40" viewBox="0 0 41 40" fill="none" xmlns="http://www.w3.org/2000/svg">
<path fill-rule="evenodd" clip-rule="evenodd" d="M32.9994 20.0001V22.5001C32.9994 27.2141 32.9994 29.5711 31.5351 31.0356C30.0706 32.5001 27.7136 32.5001 22.9995 32.5001H17.9995C13.2854 32.5001 10.9284 32.5001 9.46395 31.0356C7.99949 29.5711 7.99949 27.2141 7.99949 22.5001V20.0001C7.99949 19.8362 7.99939 19.6522 7.99928 19.4553C7.9987 18.3922 7.99792 16.9516 8.01154 16.25H32.9793C32.9954 17.0816 32.9994 18.9513 32.9994 20.0001ZM28 21.5C28 22.3284 27.3285 23 26.5 23C25.6715 23 25 22.3284 25 21.5C25 20.6716 25.6715 20 26.5 20C27.3285 20 28 20.6716 28 21.5ZM28 26.5C28 27.3284 27.3285 28 26.5 28C25.6715 28 25 27.3284 25 26.5C25 25.6716 25.6715 25 26.5 25C27.3285 25 28 25.6716 28 26.5ZM22 26.5C22 27.3284 21.3285 28 20.5 28C19.6715 28 19 27.3284 19 26.5C19 25.6716 19.6715 25 20.5 25C21.3285 25 22 25.6716 22 26.5ZM22 21.5C22 22.3284 21.3285 23 20.5 23C19.6715 23 19 22.3284 19 21.5C19 20.6716 19.6715 20 20.5 20C21.3285 20 22 20.6716 22 21.5ZM16 26.5C16 27.3284 15.3284 28 14.5 28C13.6716 28 13 27.3284 13 26.5C13 25.6716 13.6716 25 14.5 25C15.3284 25 16 25.6716 16 26.5ZM16 21.5C16 22.3284 15.3284 23 14.5 23C13.6716 23 13 22.3284 13 21.5C13 20.6716 13.6716 20 14.5 20C15.3284 20 16 20.6716 16 21.5Z" fill="white"/>
<path d="M12.5 8.5C12.5 7.67157 13.1716 7 14 7C14.8284 7 15.5 7.67157 15.5 8.5V10.225C16.2355 10.2155 17.0456 10.2155 17.9402 10.2155H22.9601C23.8953 10.2155 24.7382 10.2155 25.5 10.2264V8.5C25.5 7.67157 26.1716 7 27 7C27.8284 7 28.5 7.67157 28.5 8.5V10.3964C29.8501 10.5745 30.8001 10.928 31.5295 11.6295C32.4008 12.4673 32.7557 12.6077 32.9004 14.3448L33 14.25H8V14.3448C8.14462 12.6077 8.49963 12.4673 9.37082 11.6295C10.1181 10.9109 11.0968 10.5574 12.5 10.3837V8.5Z" fill="white" fill-opacity="0.5"/>
</svg>
