<svg width="41" height="40" viewBox="0 0 41 40" fill="none" xmlns="http://www.w3.org/2000/svg">
<path d="M19.5642 19.4337L19.6045 19.3958C20.0923 19.1306 20.5311 18.7865 20.9036 18.3807C20.928 18.3649 20.9525 18.3492 20.977 18.3336C21.6526 17.5789 22.1022 16.6177 22.2197 15.5563L22.1954 15.4958C22.2114 15.3327 22.2196 15.1673 22.2196 15.0001C22.2196 14.1448 22.0049 13.3398 21.6264 12.6358L21.6257 12.5782C20.7728 11.0407 19.133 10 17.2502 10L17.2349 10L17.2195 10C15.3367 10 13.6969 11.0407 12.844 12.5782L12.8433 12.6357C12.4648 13.3397 12.2501 14.1448 12.2501 15.0001C12.2501 15.1673 12.2583 15.3327 12.2743 15.4957L12.25 15.5563C12.3675 16.6177 12.8171 17.5789 13.4927 18.3336C13.5172 18.3492 13.5417 18.3649 13.5661 18.3807C13.9386 18.7865 14.3774 19.1306 14.8652 19.3958L14.9055 19.4337C15.5975 19.7956 16.3846 20.0002 17.2195 20.0002L17.2349 20.0002L17.2502 20.0002C18.0851 20.0002 18.8722 19.7956 19.5642 19.4337Z" fill="white"/>
<path d="M11.0001 30.0005C9.61929 30.0005 8.5 28.8812 8.5 27.5004C8.5 24.3534 10.4382 21.659 13.1861 20.546C14.3207 21.3789 15.7202 21.872 17.2349 21.8753C18.7495 21.872 20.149 21.3789 21.2836 20.546C24.0315 21.659 25.9697 24.3534 25.9697 27.5004C25.9697 28.8812 24.8504 30.0005 23.4697 30.0005H11.0001Z" fill="white"/>
<path d="M28.5 12C27.8096 12 27.25 12.5596 27.25 13.25V14.75H25.75C25.0596 14.75 24.5 15.3096 24.5 16C24.5 16.6904 25.0596 17.25 25.75 17.25H27.25V18.75C27.25 19.4404 27.8096 20 28.5 20C29.1904 20 29.75 19.4404 29.75 18.75V17.25H31.25C31.9404 17.25 32.5 16.6904 32.5 16C32.5 15.3096 31.9404 14.75 31.25 14.75H29.75V13.25C29.75 12.5596 29.1904 12 28.5 12Z" fill="white" fill-opacity="0.65"/>
</svg>
