<svg width="41" height="40" viewBox="0 0 41 40" fill="none" xmlns="http://www.w3.org/2000/svg">
<path fill-rule="evenodd" clip-rule="evenodd" d="M29.6008 16.0035C29.5441 16 29.4824 16 29.4185 16L29.4025 16H26.894C24.8263 16 23.0571 17.6276 23.0571 19.75C23.0571 21.8724 24.8263 23.5 26.894 23.5H29.4025H29.4185C29.4824 23.5 29.5441 23.5001 29.6008 23.4965C30.4407 23.4434 31.1834 22.7862 31.2459 21.8682C31.25 21.808 31.2499 21.7431 31.2499 21.683V21.6667V17.8333V17.817C31.2499 17.7569 31.25 17.692 31.2459 17.6318C31.1834 16.7138 30.4407 16.0566 29.6008 16.0035ZM26.6716 20.75C27.2039 20.75 27.6354 20.3023 27.6354 19.75C27.6354 19.1977 27.2039 18.75 26.6716 18.75C26.1393 18.75 25.7077 19.1977 25.7077 19.75C25.7077 20.3023 26.1393 20.75 26.6716 20.75Z" fill="white" fill-opacity="0.65"/>
<path fill-rule="evenodd" clip-rule="evenodd" d="M29.4179 25C29.567 24.9961 29.6799 25.1342 29.6394 25.2778C29.4387 25.9902 29.12 26.5975 28.6088 27.1088C27.8604 27.8571 26.9114 28.1892 25.739 28.3469C24.5998 28.5 23.1442 28.5 21.3064 28.5H19.1936C17.3558 28.5 15.9002 28.5 14.761 28.3469C13.5886 28.1892 12.6396 27.8571 11.8912 27.1088C11.1429 26.3604 10.8108 25.4114 10.6531 24.239C10.5 23.0998 10.5 21.6442 10.5 19.8064V19.6936C10.5 17.8558 10.5 16.4002 10.6531 15.261C10.8108 14.0886 11.1429 13.1396 11.8912 12.3912C12.6396 11.6429 13.5886 11.3108 14.761 11.1531C15.9002 11 17.3558 11 19.1936 11H21.3064C23.1442 11 24.5998 11 25.739 11.1531C26.9114 11.3108 27.8604 11.6429 28.6088 12.3912C29.12 12.9025 29.4386 13.5097 29.6394 14.2222C29.6799 14.3658 29.567 14.5039 29.4179 14.5L26.894 14.5C24.0574 14.5 21.5571 16.7409 21.5571 19.75C21.5571 22.7591 24.0574 25 26.894 25H29.4179ZM15.5 23.5C15.0858 23.5 14.75 23.1642 14.75 22.75V16.75C14.75 16.3358 15.0858 16 15.5 16C15.9142 16 16.25 16.3358 16.25 16.75V22.75C16.25 23.1642 15.9142 23.5 15.5 23.5Z" fill="white"/>
</svg>
