<svg width="41" height="40" viewBox="0 0 41 40" fill="none" xmlns="http://www.w3.org/2000/svg">
<path fill-rule="evenodd" clip-rule="evenodd" d="M23.8781 23.9592L30.1651 17.6911C31.0706 16.7884 31.5233 16.337 31.7617 15.7631C32.0002 15.1891 32.0002 14.5508 32.0002 13.2742V12.6643C32.0002 10.7012 32.0002 9.7197 31.3884 9.10985C30.7768 8.5 29.7923 8.5 27.8233 8.5H27.2116C25.9311 8.5 25.2908 8.5 24.7152 8.73774C24.1394 8.97549 23.6868 9.42684 22.7813 10.3295L16.4942 16.5977C15.4362 17.6525 14.7802 18.3066 14.5262 18.9382C14.4459 19.1379 14.4058 19.3352 14.4058 19.5424C14.4058 20.4047 15.1019 21.0989 16.4942 22.487L16.6813 22.6735L18.8733 20.4489C19.1859 20.1316 19.6966 20.1277 20.0138 20.4404C20.3311 20.753 20.3349 21.2636 20.0223 21.5809L17.8236 23.8124L17.9709 23.9592C19.3633 25.3474 20.0594 26.0414 20.9244 26.0414C21.1157 26.0414 21.2986 26.0075 21.4824 25.9397C22.1312 25.7009 22.7933 25.0406 23.8781 23.9592ZM26.8317 16.5982C26.0161 17.4113 24.6937 17.4113 23.8782 16.5982C23.0626 15.785 23.0626 14.4667 23.8782 13.6535C24.6937 12.8404 26.0161 12.8404 26.8317 13.6535C27.6473 14.4667 27.6473 15.785 26.8317 16.5982Z" fill="white"/>
<path d="M15.323 15.488L18.0576 12.7615C17.1497 12.1881 16.5939 11.8862 16.0063 11.7994C15.365 11.7046 14.7 11.7896 14.0845 12.045C13.3865 12.3345 11.9403 13.7764 10.7357 14.9773C10.316 15.3958 10.463 16.1058 11.0146 16.3243L11.4218 16.4857C11.4883 16.512 11.5215 16.5252 11.5543 16.5387C12.1672 16.7913 12.7263 17.158 13.2017 17.6191C13.227 17.6437 13.2524 17.669 13.3029 17.7194L13.3296 17.746C13.5276 17.4233 13.7612 17.1312 13.9951 16.8643C14.3592 16.4487 14.8203 15.9891 15.323 15.488Z" fill="white" fill-opacity="0.7"/>
<path d="M23.226 27.6669C23.0937 27.4982 22.9474 27.3402 22.727 27.1165C23.0356 26.9276 23.3151 26.7072 23.5706 26.4865C23.9966 26.1186 24.4677 25.6489 24.9814 25.1366L24.9822 25.1359L27.7259 22.4004C28.3011 23.3052 28.6038 23.8594 28.6908 24.4451C28.7859 25.0845 28.7007 25.7475 28.4445 26.3611C28.1542 27.0568 26.7088 28.4978 25.5047 29.6986L25.5033 29.6999L25.4129 29.79C25.0394 30.1624 24.3962 30.034 24.2027 29.5484C23.965 28.9523 23.8459 28.6534 23.6928 28.3743C23.5567 28.1263 23.4005 27.8897 23.226 27.6669Z" fill="white" fill-opacity="0.7"/>
<path d="M14.1077 24.2036C14.4783 23.8331 14.4783 23.2324 14.1077 22.8619C13.7372 22.4913 13.1365 22.4913 12.766 22.8619L10.0879 25.5399C9.71743 25.9104 9.71743 26.5111 10.0879 26.8816C10.4585 27.2522 11.0592 27.2522 11.4297 26.8816L14.1077 24.2036Z" fill="white" fill-opacity="0.7"/>
<path d="M13.6214 26.8695C13.9878 27.244 13.9811 27.8447 13.6064 28.2111L11.4437 30.3262C11.0691 30.6926 10.4684 30.6858 10.102 30.3112C9.73562 29.9365 9.7423 29.336 10.1169 28.9696L12.2797 26.8544C12.6543 26.4881 13.255 26.4948 13.6214 26.8695Z" fill="white" fill-opacity="0.7"/>
<path d="M17.6193 26.3697C17.9898 26.7402 17.9898 27.341 17.6193 27.7114L14.9595 30.3712C14.589 30.7417 13.9883 30.7417 13.6177 30.3712C13.2472 30.0006 13.2472 29.3999 13.6177 29.0293L16.2774 26.3697C16.648 25.9992 17.2486 25.9992 17.6193 26.3697Z" fill="white" fill-opacity="0.7"/>
</svg>
