<svg width="40" height="40" viewBox="0 0 40 40" fill="none" xmlns="http://www.w3.org/2000/svg">
<circle cx="27" cy="13" r="4" fill="#D63C6A"/>
<path d="M21.5621 10.4611C20.7626 10.1627 19.8998 10 19 10C14.8584 10 11.501 13.4473 11.501 17.6999V18.4743C11.501 19.4038 11.233 20.3125 10.7309 21.0858L9.5004 22.9811C8.37647 24.7121 9.2345 27.065 11.1893 27.6124C16.303 29.0444 21.697 29.0444 26.8107 27.6124C28.7655 27.065 29.6236 24.7121 28.4996 22.9811L27.2691 21.0858C26.8588 20.4539 26.6049 19.7317 26.5257 18.9815C23.4337 18.7397 21 16.1541 21 13C21 12.0926 21.2014 11.2322 21.5621 10.4611Z" fill="#0399AB"/>
<path d="M14.9462 30.066C15.8807 31.2421 17.3489 32 18.9997 32C20.6506 32 22.1187 31.2421 23.0533 30.066C20.3624 30.427 17.6371 30.427 14.9462 30.066Z" fill="#0399AB"/>
</svg>
